HIERARCHY
ROOT hips
{
  OFFSET 0 10.6860622 2.3727825e-15
  CHANNELS 6 Xposition Yposition Zposition Yrotation Xrotation Zrotation
  JOINT leftUpperLeg
  {
    OFFSET 0.6642549969 -0.9402397400000004 0
    CHANNELS 3 Yrotation Xrotation Zrotation
    JOINT leftLowerLeg
    {
      OFFSET 0 -3.997221335632195 0
      CHANNELS 3 Yrotation Xrotation Zrotation
      JOINT leftFoot
      {
        OFFSET -0.13777839790000004 -4.6145792000000005 -0.22186036399999998
        CHANNELS 3 Yrotation Xrotation Zrotation
        JOINT leftToes
        {
          OFFSET -0.03777410834999995 -0.9130806927000008 0.85230013
          CHANNELS 3 Yrotation Xrotation Zrotation
          End Site
          {
            OFFSET -0.03777410834999995 -0.9130806927000008 0.85230013
          }
        }
      }
    }
  }
  JOINT rightUpperLeg
  {
    OFFSET -0.6642778626 -0.9402397400000004 0
    CHANNELS 3 Yrotation Xrotation Zrotation
    JOINT rightLowerLeg
    {
      OFFSET 0 -3.997221452859387 0
      CHANNELS 3 Yrotation Xrotation Zrotation
      JOINT rightFoot
      {
        OFFSET 0.1377926176 -4.6145792000000005 -0.22185782299999995
        CHANNELS 3 Yrotation Xrotation Zrotation
        JOINT rightToes
        {
          OFFSET 0.037780746850000047 -0.9130806927000008 0.85230167
          CHANNELS 3 Yrotation Xrotation Zrotation
          End Site
          {
            OFFSET 0.037780746850000047 -0.9130806927000008 0.85230167
          }
        }
      }
    }
  }
  JOINT spine
  {
    OFFSET 0 0.13988381660000015 0
    CHANNELS 3 Yrotation Xrotation Zrotation
    JOINT chest
    {
      OFFSET 0 0.6191039003973773 0
      CHANNELS 3 Yrotation Xrotation Zrotation
      JOINT upperChest
      {
        OFFSET 0 0.9855186130586943 0
        CHANNELS 3 Yrotation Xrotation Zrotation
        JOINT leftShoulder
        {
          OFFSET 0.1807663869 1.5087829790000005 0
          CHANNELS 3 Yrotation Xrotation Zrotation
          JOINT leftUpperArm
          {
            OFFSET 0.5985063006419806 0 0
            CHANNELS 3 Yrotation Xrotation Zrotation
            JOINT leftLowerArm
            {
              OFFSET 2.2993332369501065 0 0
              CHANNELS 3 Yrotation Xrotation Zrotation
              JOINT leftHand
              {
                OFFSET 2.395047042602395 0 0
                CHANNELS 3 Yrotation Xrotation Zrotation
                JOINT leftIndexProximal
                {
                  OFFSET 0.5766295810000004 0.04556643899499946 0.17265095988184
                  CHANNELS 3 Yrotation Xrotation Zrotation
                  JOINT leftIndexIntermediate
                  {
                    OFFSET 0.2957229000000008 -0.019352197700001517 -0.007932640616999987
                    CHANNELS 3 Yrotation Xrotation Zrotation
                    JOINT leftIndexDistal
                    {
                      OFFSET 0.19008243099999922 -0.012484908149998475 -0.002786250786000012
                      CHANNELS 3 Yrotation Xrotation Zrotation
                      End Site
                      {
                        OFFSET 0.19008243099999922 -0.012484908149998475 -0.002786250786000012
                      }
                    }
                  }
                }
                JOINT leftMiddleProximal
                {
                  OFFSET 0.5834975091000001 0.0524350405149987 0.02204081888183999
                  CHANNELS 3 Yrotation Xrotation Zrotation
                  JOINT leftMiddleIntermediate
                  {
                    OFFSET 0.33880573540000003 -0.019871473270000717 -0.00000971183179999946
                    CHANNELS 3 Yrotation Xrotation Zrotation
                    JOINT leftMiddleDistal
                    {
                      OFFSET 0.20676022730000088 -0.012221336379999448 0.0001471936708000235
                      CHANNELS 3 Yrotation Xrotation Zrotation
                      End Site
                      {
                        OFFSET 0.20676022730000088 -0.012221336379999448 0.0001471936708000235
                      }
                    }
                  }
                }
                JOINT leftLittleProximal
                {
                  OFFSET 0.5344154683999995 -0.012880921405001189 -0.24414037221816004
                  CHANNELS 3 Yrotation Xrotation Zrotation
                  JOINT leftLittleIntermediate
                  {
                    OFFSET 0.21758961730000093 -0.011650919939999227 0.011893592810000034
                    CHANNELS 3 Yrotation Xrotation Zrotation
                    JOINT leftLittleDistal
                    {
                      OFFSET 0.1475273964999999 -0.008152365682999818 0.006001092492999946
                      CHANNELS 3 Yrotation Xrotation Zrotation
                      End Site
                      {
                        OFFSET 0.1475273964999999 -0.008152365682999818 0.006001092492999946
                      }
                    }
                  }
                }
                JOINT leftRingProximal
                {
                  OFFSET 0.5799399463000003 0.026911854694997794 -0.12150566991816003
                  CHANNELS 3 Yrotation Xrotation Zrotation
                  JOINT leftRingIntermediate
                  {
                    OFFSET 0.26167887460000006 -0.013480186499999602 0.010996293000000053
                    CHANNELS 3 Yrotation Xrotation Zrotation
                    JOINT leftRingDistal
                    {
                      OFFSET 0.17667108799999987 -0.008990287899999228 0.0055541023999999065
                      CHANNELS 3 Yrotation Xrotation Zrotation
                      End Site
                      {
                        OFFSET 0.17667108799999987 -0.008990287899999228 0.0055541023999999065
                      }
                    }
                  }
                }
                JOINT leftThumbProximal
                {
                  OFFSET 0.11018806699999972 -0.09448718900500053 0.17047963138184
                  CHANNELS 3 Yrotation Xrotation Zrotation
                  JOINT leftThumbIntermediate
                  {
                    OFFSET 0.31062601459999983 -0.08126270900000132 0.15443142000000007
                    CHANNELS 3 Yrotation Xrotation Zrotation
                    JOINT leftThumbDistal
                    {
                      OFFSET 0.21627175790000086 -0.08833193599999878 0.018771167799999988
                      CHANNELS 3 Yrotation Xrotation Zrotation
                      End Site
                      {
                        OFFSET 0.21627175790000086 -0.08833193599999878 0.018771167799999988
                      }
                    }
                  }
                }
              }
            }
          }
        }
        JOINT neck
        {
          OFFSET 0 1.5463305265074576 0
          CHANNELS 3 Yrotation Xrotation Zrotation
          JOINT head
          {
            OFFSET 0 0.8456443600000344 0
            CHANNELS 3 Yrotation Xrotation Zrotation
            JOINT leftEye
            {
              OFFSET 0.30408573140000006 0.5104519199999995 0.1276382305
              CHANNELS 3 Yrotation Xrotation Zrotation
              End Site
              {
                OFFSET 0.30408573140000006 0.5104519199999995 0.1276382305
              }
            }
            JOINT rightEye
            {
              OFFSET -0.30409491089999996 0.5104519199999995 0.1276379445
              CHANNELS 3 Yrotation Xrotation Zrotation
              End Site
              {
                OFFSET -0.30409491089999996 0.5104519199999995 0.1276379445
              }
            }
            JOINT jaw
            {
              OFFSET -3.155239131000001e-7 -0.11984121820000082 0.60178107
              CHANNELS 3 Yrotation Xrotation Zrotation
              End Site
              {
                OFFSET -3.155239131000001e-7 -0.11984121820000082 0.60178107
              }
            }
          }
        }
        JOINT rightShoulder
        {
          OFFSET -0.1807303465 1.5087829790000005 0
          CHANNELS 3 Yrotation Xrotation Zrotation
          JOINT rightUpperArm
          {
            OFFSET -0.5985063796536958 0 0
            CHANNELS 3 Yrotation Xrotation Zrotation
            JOINT rightLowerArm
            {
              OFFSET -2.2993322059002854 0 0
              CHANNELS 3 Yrotation Xrotation Zrotation
              JOINT rightHand
              {
                OFFSET -2.395045314457259 0 0
                CHANNELS 3 Yrotation Xrotation Zrotation
                JOINT rightIndexProximal
                {
                  OFFSET -0.5764487688300002 0.0441371204405987 0.17361932004999997
                  CHANNELS 3 Yrotation Xrotation Zrotation
                  JOINT rightIndexIntermediate
                  {
                    OFFSET -0.29573011380000047 -0.01934826376999843 -0.007698921482999974
                    CHANNELS 3 Yrotation Xrotation Zrotation
                    JOINT rightIndexDistal
                    {
                      OFFSET -0.19008373999999884 -0.012503266380000655 -0.0026365778999999897
                      CHANNELS 3 Yrotation Xrotation Zrotation
                      End Site
                      {
                        OFFSET -0.19008373999999884 -0.012503266380000655 -0.0026365778999999897
                      }
                    }
                  }
                }
                JOINT rightMiddleProximal
                {
                  OFFSET -0.5834852037300005 0.05211639405060153 0.02307162440000001
                  CHANNELS 3 Yrotation Xrotation Zrotation
                  JOINT rightMiddleIntermediate
                  {
                    OFFSET -0.33880114510000003 -0.019952774050000954 0.0002455003561999819
                    CHANNELS 3 Yrotation Xrotation Zrotation
                    JOINT rightMiddleDistal
                    {
                      OFFSET -0.20675694929999955 -0.012273788999999091 0.00030209124000002766
                      CHANNELS 3 Yrotation Xrotation Zrotation
                      End Site
                      {
                        OFFSET -0.20675694929999955 -0.012273788999999091 0.00030209124000002766
                      }
                    }
                  }
                }
                JOINT rightLittleProximal
                {
                  OFFSET -0.5346811737299992 -0.011214256288399227 -0.24363941305000003
                  CHANNELS 3 Yrotation Xrotation Zrotation
                  JOINT rightLittleIntermediate
                  {
                    OFFSET -0.21757715980000092 -0.011771559690000988 0.01201554387
                    CHANNELS 3 Yrotation Xrotation Zrotation
                    JOINT rightLittleDistal
                    {
                      OFFSET -0.1475201849000004 -0.00822055339600003 0.006082065407000015
                      CHANNELS 3 Yrotation Xrotation Zrotation
                      End Site
                      {
                        OFFSET -0.1475201849000004 -0.00822055339600003 0.006082065407000015
                      }
                    }
                  }
                }
                JOINT rightRingProximal
                {
                  OFFSET -0.5800810755299999 0.027657985680600072 -0.12066365025000003
                  CHANNELS 3 Yrotation Xrotation Zrotation
                  JOINT rightRingIntermediate
                  {
                    OFFSET -0.26166445029999974 -0.013623118409999302 0.011164098990000045
                    CHANNELS 3 Yrotation Xrotation Zrotation
                    JOINT rightRingDistal
                    {
                      OFFSET -0.17666387530000027 -0.009072900100000503 0.005668185599999959
                      CHANNELS 3 Yrotation Xrotation Zrotation
                      End Site
                      {
                        OFFSET -0.17666387530000027 -0.009072900100000503 0.005668185599999959
                      }
                    }
                  }
                }
                JOINT rightThumbProximal
                {
                  OFFSET -0.10997596379000074 -0.09577489355940072 0.16989765924999997
                  CHANNELS 3 Yrotation Xrotation Zrotation
                  JOINT rightThumbIntermediate
                  {
                    OFFSET -0.31036620999999986 -0.08229339117999834 0.15440884469999996
                    CHANNELS 3 Yrotation Xrotation Zrotation
                    JOINT rightThumbDistal
                    {
                      OFFSET -0.21631306399999906 -0.08825326400000111 0.018656797720000014
                      CHANNELS 3 Yrotation Xrotation Zrotation
                      End Site
                      {
                        OFFSET -0.21631306399999906 -0.08825326400000111 0.018656797720000014
                      }
                    }
                  }
                }
              }
            }
          }
        }
      }
    }
  }
}
MOTION
Frames: 7
Frame Time: 0.03333333333333333
2.3709802770328663 -9.24446877026351 4.1123232896648005 -0.0013534574940985264 70.999681381242 -21.001311370504048 14.56435621087224 9.622209199740514 5.063360973395448 28.57507934204019 -5.559962057835695 0.7916684297490266 -12.43989596951691 58.40003423572463 -5.9113130897408555 0 0 0 62.5309824263542 -74.77125140980888 -123.76339013347598 -147.93238076327623 76.17971906799914 -148.58616418045165 -1.806134536349692 17.51711661556352 -5.430743516091861 0 0 0 -0.9839428918622452 46.5552839459835 -2.191064088318261 -0.13522495600359472 -31.52406592435454 -5.18943768391563 0 0 0 -0.9898543029628606 16.40416834587525 -30.84375788606817 2.5826610691428913 -52.53033563268972 -36.455148462918395 -125.8626427021318 54.09955404623587 3.19700850223756 -31.50583173506515 31.191571957502525 27.67222016327174 0 0 0 0 0 0 0 0 0 0 0 0 0 0 0 0 0 0 0 0 0 0 0 0 0 0 0 0 0 0 0 0 0 0 0 0 0 0 0 0 0 0 0 0 0 0 -22.47874468588649 0 -28.036675700810637 0.9051697317840464 -3.754067564406648 0 0 0 0 0 0 0 0 0 3.284689541743125 15.264745298141406 20.26352200822759 9.043183383517107 -61.41781907326448 33.337143947629 95.24554435989198 51.791988591703095 -15.312508473645769 1.636716473817007 -25.263025944342882 7.519270870783667 0 0 0 0 0 0 0 0 0 0 0 0 0 0 0 0 0 0 0 0 0 0 0 0 0 0 0 0 0 0 0 0 0 0 0 0 0 0 0 0 0 0 0 0 0
2.3628869080916313 -9.240801458268383 4.096831956157285 -0.0013534574940985264 70.999681381242 -21.001311370504048 14.533081568288035 9.273203275349662 5.095583219485067 28.551093419672018 -4.969906862696934 1.0540421076479871 -12.557726808793353 58.07957505213288 -6.056838430570632 0 0 0 62.5309824263542 -74.77125140980888 -123.76339013347598 -147.93238076327623 76.17971906799914 -148.58616418045165 -1.806134536349692 17.51711661556352 -5.430743516091861 0 0 0 -0.9839428918622452 46.5552839459835 -2.191064088318261 -0.13522495600359472 -31.52406592435454 -5.18943768391563 0 0 0 -0.7780611632306917 16.164132445711882 -30.369165236801297 2.5826571358809103 -52.53033563268972 -36.45514512724752 -125.8626427021318 54.09955404623587 3.19700850223756 -31.150381606388592 30.897852773883333 27.628834505461647 0 0 0 0 0 0 0 0 0 0 0 0 0 0 0 0 0 0 0 0 0 0 0 0 0 0 0 0 0 0 0 0 0 0 0 0 0 0 0 0 0 0 0 0 0 0 -22.47874468588649 0 -27.84551868112459 0.758075838618723 -3.6920141732888894 0 0 0 0 0 0 0 0 0 3.0939093065813696 15.022734812105696 19.933240143107962 9.04319227488266 -61.41781193496989 33.337136101723125 95.24554727018412 51.791988591703095 -15.312504479594951 1.3088392801212456 -25.467583292352888 7.662835026935315 0 0 0 0 0 0 0 0 0 0 0 0 0 0 0 0 0 0 0 0 0 0 0 0 0 0 0 0 0 0 0 0 0 0 0 0 0 0 0 0 0 0 0 0 0
2.354793270758125 -9.237134146273256 4.08134089104204 -0.0013534574940985264 70.999681381242 -21.001311370504048 14.501623328860624 8.924051505849176 5.127980052415991 28.529807781469543 -4.378810944550641 1.3163638027156195 -12.673042850964533 57.758843594129154 -6.199903614848748 0 0 0 62.5309824263542 -74.77125140980888 -123.76339013347598 -147.93238076327623 76.17971906799914 -148.58616418045165 -1.806134536349692 17.51711661556352 -5.430743516091861 0 0 0 -0.9839428918622452 46.5552839459835 -2.191064088318261 -0.13522495600359472 -31.52406592435454 -5.18943768391563 0 0 0 -0.5683836913602598 15.92217161968532 -29.895586408289667 2.5826571358809103 -52.53033563268972 -36.45514512724752 -125.8626427021318 54.09955404623587 3.19700850223756 -30.79545509687804 30.60409948803939 27.583406838551014 0 0 0 0 0 0 0 0 0 0 0 0 0 0 0 0 0 0 0 0 0 0 0 0 0 0 0 0 0 0 0 0 0 0 0 0 0 0 0 0 0 0 0 0 0 0 -22.47874468588649 0 -27.654459942780647 0.6107223638376797 -3.6304305267461157 0 0 0 0 0 0 0 0 0 2.904668467370947 14.779513166111334 19.603953125129568 9.04319227488266 -61.41781193496989 33.337136101723125 95.24554727018412 51.791988591703095 -15.312504479594951 0.9796749607651376 -25.67149063445 7.8080106713494475 0 0 0 0 0 0 0 0 0 0 0 0 0 0 0 0 0 0 0 0 0 0 0 0 0 0 0 0 0 0 0 0 0 0 0 0 0 0 0 0 0 0 0 0 0
2.3466999018168906 -9.23346683427813 4.065849557534525 -0.0013534574940985264 70.999681381242 -21.001311370504048 14.469982798484546 8.57476209255458 5.160558780366213 28.511227023898 -3.7867227617116694 1.5786706096471332 -12.785897936168952 57.43783714220945 -6.34056430654939 0 0 0 62.5309824263542 -74.77125140980888 -123.76339013347598 -147.93238076327623 76.17971906799914 -148.58616418045165 -1.806134536349692 17.51711661556352 -5.430743516091861 0 0 0 -0.9839428918622452 46.5552839459835 -2.191064088318261 -0.13522495600359472 -31.52406592435454 -5.18943768391563 0 0 0 -0.36083833199096016 15.678318710175322 -29.423033860849596 2.5826571358809103 -52.53033563268972 -36.45514512724752 -125.8626427021318 54.09955404623587 3.19700850223756 -30.441021736447556 30.310360105831922 27.535984695548844 0 0 0 0 0 0 0 0 0 0 0 0 0 0 0 0 0 0 0 0 0 0 0 0 0 0 0 0 0 0 0 0 0 0 0 0 0 0 0 0 0 0 0 0 0 0 -22.47874468588649 0 -27.463493587747838 0.4631112383571861 -3.5693191422207198 0 0 0 0 0 0 0 0 0 2.7169722502632006 14.535097721988299 19.27566319425438 9.04319227488266 -61.41781193496989 33.337136101723125 95.24554727018412 51.791988591703095 -15.312504479594951 0.6492178418217917 -25.874743435290206 7.954808612511462 0 0 0 0 0 0 0 0 0 0 0 0 0 0 0 0 0 0 0 0 0 0 0 0 0 0 0 0 0 0 0 0 0 0 0 0 0 0 0 0 0 0 0 0 0
2.3386062644833845 -9.229799790675274 4.0503582240270095 -0.0013534574940985264 70.999681381242 -21.001311370504048 14.438153706430771 8.225340574638832 5.193313594260365 28.495343597256912 -3.1936899398611263 1.8410037594076132 -12.896357124398843 57.11655293929836 -6.47888464344448 0 0 0 62.5309824263542 -74.77125140980888 -123.76339013347598 -147.93238076327623 76.17971906799914 -148.58616418045165 -1.806134536349692 17.51711661556352 -5.430743516091861 0 0 0 -0.9839428918622452 46.5552839459835 -2.191064088318261 -0.13522495600359472 -31.52406592435454 -5.18943768391563 0 0 0 -0.15544246640646422 15.432597388533376 -28.95152367571765 2.5826571358809103 -52.53033563268972 -36.45514512724752 -125.8626427021318 54.09955404623587 3.19700850223756 -30.087086525333053 30.01664259249636 27.486556030131336 0 0 0 0 0 0 0 0 0 0 0 0 0 0 0 0 0 0 0 0 0 0 0 0 0 0 0 0 0 0 0 0 0 0 0 0 0 0 0 0 0 0 0 0 0 0 -22.47874468588649 0 -27.27262747067269 0.3152471040943852 -3.5086806212491677 0 0 0 0 0 0 0 0 0 2.530817982227615 14.289500362867857 18.948366653703957 9.04319227488266 -61.41781193496989 33.337136101723125 95.24554727018412 51.791988591703095 -15.312504479594951 0.31746315786022467 -26.07731427222311 8.103226526918473 0 0 0 0 0 0 0 0 0 0 0 0 0 0 0 0 0 0 0 0 0 0 0 0 0 0 0 0 0 0 0 0 0 0 0 0 0 0 0 0 0 0 0 0 0
2.3305126271498784 -9.22613247868015 4.034866890519495 -0.0013534574940985264 70.999681381242 -21.001311370504048 14.406141433368525 7.875795015452842 5.226253298763451 28.482177435773064 -2.599758474103084 2.1034006515423243 -13.00449153279223 56.795013135436314 -6.614935519312654 0 0 0 62.5309824263542 -74.77125140980888 -123.76339013347598 -147.93238076327623 76.17971906799914 -148.58616418045165 -1.806134536349692 17.51711661556352 -5.430743516091861 0 0 0 -0.9839428918622452 46.5552839459835 -2.191064088318261 -0.13522495600359472 -31.52406592435454 -5.18943768391563 0 0 0 0.04779508507589216 15.185029285238718 -28.481049212638485 2.5826571358809103 -52.53033563268972 -36.45514512724752 -125.8626427021318 54.09955404623587 3.19700850223756 -29.733626384688638 29.722966596231533 27.435149190475357 0 0 0 0 0 0 0 0 0 0 0 0 0 0 0 0 0 0 0 0 0 0 0 0 0 0 0 0 0 0 0 0 0 0 0 0 0 0 0 0 0 0 0 0 0 0 -22.47874468588649 0 -27.08185264334578 0.16713148421080395 -3.44851430390947 0 0 0 0 0 0 0 0 0 2.346211301603368 14.042738964406388 18.622069106486038 9.04319227488266 -61.41781193496989 33.337136101723125 95.24554727018412 51.791988591703095 -15.312504479594951 -0.015594604148541528 -26.279190724464495 8.253270663861679 0 0 0 0 0 0 0 0 0 0 0 0 0 0 0 0 0 0 0 0 0 0 0 0 0 0 0 0 0 0 0 0 0 0 0 0 0 0 0 0 0 0 0 0 0
2.322419258208644 -9.22246489829275 4.01937582540425 -0.0013534574940985264 70.999681381242 -21.001311370504048 14.373933729138349 7.526129966215843 5.259370662853356 28.471728720352147 -2.0049798346780348 2.3659028183396327 -13.11036666516036 56.4732389965041 -6.748784796708919 0 0 0 62.5309824263542 -74.77125140980888 -123.76339013347598 -147.93238076327623 76.17971906799914 -148.58616418045165 -1.806134536349692 17.51711661556352 -5.430743516091861 0 0 0 -0.9839428918622452 46.5552839459835 -2.191064088318261 -0.13522495600359472 -31.52406592435454 -5.18943768391563 0 0 0 0.24885495391424978 14.935651672395418 -28.011637932441673 2.5826571358809103 -52.53033563268972 -36.45514512724752 -125.8626427021318 54.09955404623587 3.19700850223756 -29.38063733419621 29.429359359809208 27.381768984242544 0 0 0 0 0 0 0 0 0 0 0 0 0 0 0 0 0 0 0 0 0 0 0 0 0 0 0 0 0 0 0 0 0 0 0 0 0 0 0 0 0 0 0 0 0 0 -22.47874468588649 0 -26.891167771283214 0.01876715236948866 -3.388822745397645 0 0 0 0 0 0 0 0 0 2.1631529162262115 13.794827692076948 18.29675590521076 9.04319227488266 -61.41781193496989 33.337136101723125 95.24554727018412 51.791988591703095 -15.312504479594951 -0.3499622686327736 -26.480375502574947 8.404953856709229 0 0 0 0 0 0 0 0 0 0 0 0 0 0 0 0 0 0 0 0 0 0 0 0 0 0 0 0 0 0 0 0 0 0 0 0 0 0 0 0 0 0 0 0 0
